HIERARCHY
ROOT Hips
{
  OFFSET -0.589095 22.1471 2.58842
  CHANNELS 6 Xposition Yposition Zposition Zrotation Xrotation Yrotation
  JOINT BN_Bip01_Pelvis
  {
    OFFSET -3.49357 -5.29363 -0.000213444
    CHANNELS 6 Xposition Yposition Zposition Zrotation Xrotation Yrotation
    JOINT BN_leg_R_01
    {
      OFFSET 10.8127 -7.82778 -6.29737
      CHANNELS 6 Xposition Yposition Zposition Zrotation Xrotation Yrotation
      JOINT BN_leg_R_02
      {
        OFFSET 8.91071 0 0
        CHANNELS 6 Xposition Yposition Zposition Zrotation Xrotation Yrotation
        JOINT BN_leg_R_03
        {
          OFFSET 15.6024 0 0
          CHANNELS 6 Xposition Yposition Zposition Zrotation Xrotation Yrotation
          JOINT BN_leg_R_04
          {
            OFFSET 9.68174 0 0
            CHANNELS 6 Xposition Yposition Zposition Zrotation Xrotation Yrotation
            JOINT BN_leg_R_05
            {
              OFFSET 10.6982 0 0
              CHANNELS 6 Xposition Yposition Zposition Zrotation Xrotation Yrotation
              JOINT BN_Leg_R_05Nub
              {
                OFFSET 11.1504 0 0
                CHANNELS 6 Xposition Yposition Zposition Zrotation Xrotation Yrotation
                End Site
                {
                  OFFSET 0 0 0
                }
              }
            }
          }
        }
      }
    }
    JOINT BN_leg_R_06
    {
      OFFSET 6.51511 -7.99898 -4.29089
      CHANNELS 6 Xposition Yposition Zposition Zrotation Xrotation Yrotation
      JOINT BN_Leg_R_07
      {
        OFFSET 9.03709 0 0
        CHANNELS 6 Xposition Yposition Zposition Zrotation Xrotation Yrotation
        JOINT BN_Leg_R_08
        {
          OFFSET 18.7638 0 0
          CHANNELS 6 Xposition Yposition Zposition Zrotation Xrotation Yrotation
          JOINT BN_Leg_R_09
          {
            OFFSET 10.9666 0 0
            CHANNELS 6 Xposition Yposition Zposition Zrotation Xrotation Yrotation
            JOINT BN_Leg_R_10
            {
              OFFSET 10.8726 0 0
              CHANNELS 6 Xposition Yposition Zposition Zrotation Xrotation Yrotation
              JOINT BN_Leg_R_10Nub
              {
                OFFSET 11.2648 0 0
                CHANNELS 6 Xposition Yposition Zposition Zrotation Xrotation Yrotation
                End Site
                {
                  OFFSET 0 0 0
                }
              }
            }
          }
        }
      }
    }
    JOINT BN_Leg_R_11
    {
      OFFSET 2.71429 -8.18693 -0.209972
      CHANNELS 6 Xposition Yposition Zposition Zrotation Xrotation Yrotation
      JOINT BN_Leg_R_12
      {
        OFFSET 9.8713 0 0
        CHANNELS 6 Xposition Yposition Zposition Zrotation Xrotation Yrotation
        JOINT BN_Leg_R_13
        {
          OFFSET 21.8657 0 0
          CHANNELS 6 Xposition Yposition Zposition Zrotation Xrotation Yrotation
          JOINT BN_Leg_R_14
          {
            OFFSET 11.0011 0 0
            CHANNELS 6 Xposition Yposition Zposition Zrotation Xrotation Yrotation
            JOINT BN_Leg_R_15
            {
              OFFSET 12.8798 0 0
              CHANNELS 6 Xposition Yposition Zposition Zrotation Xrotation Yrotation
              JOINT BN_Leg_R_15Nub
              {
                OFFSET 13.0642 0 0
                CHANNELS 6 Xposition Yposition Zposition Zrotation Xrotation Yrotation
                End Site
                {
                  OFFSET 0 0 0
                }
              }
            }
          }
        }
      }
    }
    JOINT BN_Leg_L_11
    {
      OFFSET 2.7143 8.18692 -0.209982
      CHANNELS 6 Xposition Yposition Zposition Zrotation Xrotation Yrotation
      JOINT BN_Leg_L_12
      {
        OFFSET 9.87129 0 0
        CHANNELS 6 Xposition Yposition Zposition Zrotation Xrotation Yrotation
        JOINT BN_Leg_L_13
        {
          OFFSET 21.8657 0 0
          CHANNELS 6 Xposition Yposition Zposition Zrotation Xrotation Yrotation
          JOINT BN_Leg_L_14
          {
            OFFSET 11.0011 0 0
            CHANNELS 6 Xposition Yposition Zposition Zrotation Xrotation Yrotation
            JOINT BN_Leg_L_15
            {
              OFFSET 12.8798 0 0
              CHANNELS 6 Xposition Yposition Zposition Zrotation Xrotation Yrotation
              JOINT BN_Leg_L_15Nub
              {
                OFFSET 13.0642 0 0
                CHANNELS 6 Xposition Yposition Zposition Zrotation Xrotation Yrotation
                End Site
                {
                  OFFSET 0 0 0
                }
              }
            }
          }
        }
      }
    }
    JOINT BN_leg_L_06
    {
      OFFSET 6.51511 7.99896 -4.29091
      CHANNELS 6 Xposition Yposition Zposition Zrotation Xrotation Yrotation
      JOINT BN_Leg_L_07
      {
        OFFSET 9.03709 0 0
        CHANNELS 6 Xposition Yposition Zposition Zrotation Xrotation Yrotation
        JOINT BN_Leg_L_08
        {
          OFFSET 18.7638 0 0
          CHANNELS 6 Xposition Yposition Zposition Zrotation Xrotation Yrotation
          JOINT BN_Leg_L_09
          {
            OFFSET 10.9666 0 0
            CHANNELS 6 Xposition Yposition Zposition Zrotation Xrotation Yrotation
            JOINT BN_Leg_L_10
            {
              OFFSET 10.8726 0 0
              CHANNELS 6 Xposition Yposition Zposition Zrotation Xrotation Yrotation
              JOINT BN_Leg_L_10Nub
              {
                OFFSET 11.2649 0 0
                CHANNELS 6 Xposition Yposition Zposition Zrotation Xrotation Yrotation
                End Site
                {
                  OFFSET 0 0 0
                }
              }
            }
          }
        }
      }
    }
    JOINT BN_leg_L_01
    {
      OFFSET 10.8127 7.82776 -6.29737
      CHANNELS 6 Xposition Yposition Zposition Zrotation Xrotation Yrotation
      JOINT BN_leg_L_02
      {
        OFFSET 8.91072 0 0
        CHANNELS 6 Xposition Yposition Zposition Zrotation Xrotation Yrotation
        JOINT BN_leg_L_03
        {
          OFFSET 15.6024 0 0
          CHANNELS 6 Xposition Yposition Zposition Zrotation Xrotation Yrotation
          JOINT BN_leg_L_04
          {
            OFFSET 9.68174 0 0
            CHANNELS 6 Xposition Yposition Zposition Zrotation Xrotation Yrotation
            JOINT BN_leg_L_05
            {
              OFFSET 10.6982 0 0
              CHANNELS 6 Xposition Yposition Zposition Zrotation Xrotation Yrotation
              JOINT BN_Leg_L_05Nub
              {
                OFFSET 11.1504 0 0
                CHANNELS 6 Xposition Yposition Zposition Zrotation Xrotation Yrotation
                End Site
                {
                  OFFSET 0 0 0
                }
              }
            }
          }
        }
      }
    }
    JOINT BN_Eye_L_01
    {
      OFFSET 28.5502 2.54627 -3.93739
      CHANNELS 6 Xposition Yposition Zposition Zrotation Xrotation Yrotation
      JOINT BN_Eye_L_02
      {
        OFFSET 2.30267 0 0
        CHANNELS 6 Xposition Yposition Zposition Zrotation Xrotation Yrotation
        JOINT BN_Eye_L_03
        {
          OFFSET 5.31894 0 0
          CHANNELS 6 Xposition Yposition Zposition Zrotation Xrotation Yrotation
          JOINT BN_Eye_L_04
          {
            OFFSET 9.71244 0 0
            CHANNELS 6 Xposition Yposition Zposition Zrotation Xrotation Yrotation
            End Site
            {
              OFFSET 0 0 0
            }
          }
        }
      }
    }
    JOINT BN_Eye_R_01
    {
      OFFSET 28.5502 -2.54612 -3.93738
      CHANNELS 6 Xposition Yposition Zposition Zrotation Xrotation Yrotation
      JOINT BN_Eye_R_02
      {
        OFFSET 2.30267 0 0
        CHANNELS 6 Xposition Yposition Zposition Zrotation Xrotation Yrotation
        JOINT BN_Eye_R_03
        {
          OFFSET 5.31896 0 0
          CHANNELS 6 Xposition Yposition Zposition Zrotation Xrotation Yrotation
          JOINT BN_Eye_R_04
          {
            OFFSET 9.71244 0 0
            CHANNELS 6 Xposition Yposition Zposition Zrotation Xrotation Yrotation
            End Site
            {
              OFFSET 0 0 0
            }
          }
        }
      }
    }
    JOINT BN_Arm_L_01
    {
      OFFSET 15.9737 8.03546 -8.36195
      CHANNELS 6 Xposition Yposition Zposition Zrotation Xrotation Yrotation
      JOINT BN_Arm_L_02
      {
        OFFSET 16.8869 0 0
        CHANNELS 6 Xposition Yposition Zposition Zrotation Xrotation Yrotation
        JOINT BN_Arm_L_03
        {
          OFFSET 8.42975 0 0
          CHANNELS 6 Xposition Yposition Zposition Zrotation Xrotation Yrotation
          JOINT BN_Arm_L_04
          {
            OFFSET 7.53864 -0.0312023 2.09083
            CHANNELS 6 Xposition Yposition Zposition Zrotation Xrotation Yrotation
            End Site
            {
              OFFSET 0 0 0
            }
          }
        }
      }
    }
    JOINT BN_Arm_R_01
    {
      OFFSET 14.7806 -6.70232 -9.44366
      CHANNELS 6 Xposition Yposition Zposition Zrotation Xrotation Yrotation
      JOINT BN_Arm_R_02
      {
        OFFSET 19.9827 0 0
        CHANNELS 6 Xposition Yposition Zposition Zrotation Xrotation Yrotation
        JOINT BN_Arm_R_03
        {
          OFFSET 17.4553 0 0
          CHANNELS 6 Xposition Yposition Zposition Zrotation Xrotation Yrotation
          JOINT BN_Arm_R_04
          {
            OFFSET 13.3834 -2.22657 7.3982
            CHANNELS 6 Xposition Yposition Zposition Zrotation Xrotation Yrotation
            End Site
            {
              OFFSET 0 0 0
            }
          }
        }
      }
    }
  }
}
MOTION
Frames:	4
Frame Time:	0.0333333
-55.1993 7.45057 -0.219456 151.183 3.73467 1.96603 -3.49325 -8.0258 -1.66533e-016 -163.39 -84.4569 153.045 10.8127 -7.82778 -6.29736 -125.694 31.7462 35.64 8.91072 -1.90735e-006 9.53674e-007 72.1153 0.417664 1.57777 15.6024 1.43051e-006 -9.53674e-007 -44.3283 7.48264 20.3103 9.68174 -3.8147e-006 3.33955e-013 -30.8654 -0.677233 -13.4041 10.6982 7.10543e-015 -2.86102e-006 -47.2964 4.11701 -1.50111 11.1504 3.8147e-006 -1.90735e-006 1.92694e-007 9.90956e-006 5.87042e-008 6.5151 -7.99897 -4.29089 -119.794 28.7488 10.4043 9.03709 -2.86102e-006 -1.90735e-006 82.0612 -1.98783 -2.90747 18.7638 -9.53675e-007 7.10543e-015 -72.5494 5.73393 9.79802 10.9665 -3.8147e-006 3.8147e-006 -29.6812 -0.483021 -1.54984 10.8726 3.8147e-006 1.20792e-013 -27.9292 -0.0144863 -2.7679 11.2648 3.8147e-006 1.90735e-006 -1.98918e-006 -1.00583e-008 1.95988e-006 2.71429 -8.18693 -0.209967 -149.601 32.0898 2.15311 9.87129 -1.90735e-006 0 69.7441 2.11599 -0.583643 21.8657 1.90735e-006 -2.13163e-014 -51.0982 10.7817 16.9364 11.0011 7.62939e-006 3.8147e-006 -29.0478 -0.392029 -1.0806 12.8798 -3.81469e-006 -3.8147e-006 -40.4731 0.00773987 -0.00293217 13.0642 3.81469e-006 3.8147e-006 6.16539e-007 9.90909e-006 9.91822e-006 2.7143 8.18692 -0.209976 161.993 -31.3841 8.83821 9.87129 9.53674e-007 1.90735e-006 -94.0831 -1.44456 -0.597341 21.8657 -1.90735e-006 -5.72205e-006 59.8367 -13.736 14.5095 11.0011 -3.8147e-006 -1.90735e-006 36.4577 0.432515 -1.24704 12.8798 -1.77636e-014 -3.8147e-006 49.3221 -0.0246076 -0.0338427 13.0642 -7.6294e-006 -7.6294e-006 -6.27237e-007 1.20248e-006 9.74076e-006 6.51512 7.99896 -4.2909 124.661 -34.5868 3.49914 9.03709 9.53674e-007 -1.90735e-006 -79.0611 1.92441 -2.8703 18.7638 -2.86102e-006 -9.9476e-014 89.188 -13.8649 11.7854 10.9666 0 0 50.2842 0.195639 -2.83492 10.8726 3.81469e-006 -4.26326e-014 48.4526 0.0157374 -3.83501 11.2649 3.81469e-006 1.90735e-006 2.0199e-007 7.80044e-008 1.00277e-005 10.8127 7.82776 -6.29737 153.045 -19.4768 28.7566 8.91072 9.53674e-007 2.86102e-006 -96.4871 -1.68241 1.75513 15.6024 2.86102e-006 9.53674e-007 144.162 -14.3362 15.6205 9.68174 1.90735e-006 1.42109e-013 21.1753 -0.147957 -10.9684 10.6982 -1.77636e-014 0 35.6049 -4.11685 -0.0410479 11.1504 -3.8147e-006 -9.53674e-007 4.72697e-008 4.01501e-006 -3.30974e-009 28.5502 2.54627 -3.93738 89.995 -40.8534 50.3814 2.30267 -1.90735e-006 7.10543e-015 -38.6133 0.762068 -11.6831 5.31895 0 2.38419e-007 -10.5603 2.22257 -8.37361 9.71243 7.10543e-015 -2.13163e-014 -14.7511 1.1729 8.13174 28.5502 -2.54612 -3.93737 89.9968 -39.1541 129.609 2.30267 -1.90735e-006 4.76837e-007 -44.0152 -1.13222 -1.01592 5.31895 3.55271e-015 0 -5.8095 0.808987 1.17213 9.71243 9.53675e-007 -5.36442e-007 -7.25828 -0.332753 -3.65206 15.9737 8.03546 -8.36195 70.5045 6.68818 -12.309 16.8869 -2.38419e-006 -1.90735e-006 -35.505 -14.0402 -11.6659 8.42975 0 -9.53675e-007 -31.7925 -10.0644 -14.3468 7.53865 -0.031208 2.09083 -7.4465 -4.98175 17.902 14.7806 -6.70232 -9.44365 -49.2765 -51.1937 13.2623 19.9827 1.90735e-006 -3.8147e-006 33.0905 1.34877 -29.2424 17.4553 3.8147e-006 9.53674e-007 27.5552 -2.00159 -8.9263 13.3835 -2.22654 7.39821 8.36906 1.86878 1.86234 
-55.1993 7.45057 -0.219456 150.841 3.87395 2.21601 -3.49325 -8.0258 -5.55112e-017 -163.39 -84.4569 153.045 10.8127 -7.82778 -6.29736 -125.769 31.9191 35.2941 8.91072 -1.90735e-006 9.53674e-007 72.0202 0.414295 1.57528 15.6024 1.43051e-006 -9.53674e-007 -44.3122 7.06393 19.7971 9.68174 -3.8147e-006 3.19744e-013 -30.6161 -0.656506 -13.3452 10.6982 -7.10543e-015 -2.86102e-006 -46.9995 4.11561 -1.46489 11.1504 3.8147e-006 -1.90735e-006 1.92694e-007 9.90956e-006 5.87042e-008 6.5151 -7.99897 -4.29089 -118.336 29.6298 8.85868 9.03709 -2.86102e-006 -1.90735e-006 80.0446 -1.94641 -2.88326 18.7638 -9.53675e-007 0 -72.3434 5.99081 10.5145 10.9665 -3.8147e-006 3.8147e-006 -29.0917 -0.489615 -1.51085 10.8726 3.8147e-006 9.23705e-014 -27.3454 -0.016469 -2.72883 11.2648 3.8147e-006 1.90735e-006 -1.98918e-006 -1.00584e-008 1.95988e-006 2.71429 -8.18693 -0.209967 -149.656 32.1907 2.00602 9.87129 -1.90735e-006 0 69.6631 2.11727 -0.581884 21.8657 1.90735e-006 -2.13163e-014 -50.9074 10.918 17.1121 11.0011 7.62939e-006 3.8147e-006 -29.1309 -0.391247 -1.08089 12.8798 -3.81469e-006 -3.8147e-006 -40.5701 0.00770929 -0.00287755 13.0642 3.81469e-006 3.8147e-006 6.1657e-007 9.90909e-006 9.91822e-006 2.7143 8.18692 -0.209976 162.574 -30.6953 9.60717 9.87129 9.53674e-007 1.90735e-006 -94.412 -1.44192 -0.595171 21.8657 -1.90735e-006 -5.72205e-006 59.3096 -13.6887 14.4946 11.0011 -3.8147e-006 -1.90735e-006 36.4799 0.435585 -1.24824 12.8798 -1.42109e-014 -3.8147e-006 49.349 -0.0272144 -0.036056 13.0642 -7.6294e-006 -7.6294e-006 -6.27237e-007 1.20248e-006 9.74076e-006 6.51512 7.99896 -4.2909 124.498 -34.6464 3.48218 9.03709 9.53674e-007 -1.90735e-006 -79.4974 1.93398 -2.87774 18.7638 -2.86102e-006 -1.20792e-013 93.0798 -13.4763 10.8956 10.9666 0 -7.10543e-015 50.9926 0.181985 -2.8767 10.8726 3.81469e-006 -2.13163e-014 49.164 0.0164659 -3.8655 11.2649 3.81469e-006 1.90735e-006 2.0199e-007 7.80045e-008 1.00277e-005 10.8127 7.82776 -6.29737 153.191 -18.7737 29.4097 8.91072 9.53674e-007 2.86102e-006 -96.729 -1.69395 1.75854 15.6024 2.86102e-006 9.53674e-007 144.665 -14.4994 15.2408 9.68174 1.90735e-006 1.56319e-013 21.6208 -0.109106 -11.0835 10.6982 0 0 36.1505 -4.11643 -0.109951 11.1504 -3.8147e-006 -9.53674e-007 4.72697e-008 4.01501e-006 -3.31285e-009 28.5502 2.54627 -3.93738 89.995 -40.8534 50.3814 2.30267 -1.90735e-006 0 -39.3704 0.775852 -12.2086 5.31895 8.88178e-016 2.38419e-007 -10.7223 2.14701 -9.15383 9.71243 -7.10543e-015 0 -14.2954 1.17697 6.17415 28.5502 -2.54612 -3.93737 89.9968 -39.1541 129.609 2.30267 -1.90735e-006 4.76837e-007 -45.9335 -1.27498 -0.836619 5.31895 1.77636e-015 0 -7.04069 0.686299 1.08989 9.71243 9.53675e-007 -5.36442e-007 -7.26841 -0.238615 -5.02076 15.9737 8.03546 -8.36195 71.2307 7.39921 -12.8754 16.8869 -2.38419e-006 -1.90735e-006 -35.4777 -13.9625 -11.4879 8.42975 -3.55271e-015 -9.53675e-007 -31.4834 -9.5121 -14.3234 7.53865 -0.031208 2.09083 -7.44147 -4.94125 20.3531 14.7806 -6.70232 -9.44365 -49.2583 -51.2135 13.2885 19.9827 1.90735e-006 -3.8147e-006 33.0858 1.39261 -29.1873 17.4553 3.8147e-006 9.53674e-007 27.5702 -1.99431 -8.90641 13.3835 -2.22654 7.39821 8.36825 1.86054 0.123396 
-55.1993 7.45057 -0.219456 150.519 3.99957 2.44236 -3.49325 -8.0258 -5.55112e-016 -163.39 -84.4569 153.045 10.8127 -7.82778 -6.29736 -125.658 32.2837 34.7772 8.91072 -1.90735e-006 9.53674e-007 71.9902 0.411849 1.57259 15.6024 1.43051e-006 -9.53674e-007 -44.6213 7.11138 19.5949 9.68174 -3.8147e-006 3.4106e-013 -31.3367 -0.719553 -13.5176 10.6982 -7.10543e-015 -2.86102e-006 -47.857 4.1155 -1.56827 11.1504 3.8147e-006 -1.90735e-006 1.92694e-007 9.90956e-006 5.87042e-008 6.5151 -7.99897 -4.29089 -117.132 30.3132 7.57512 9.03709 -2.86102e-006 -1.90735e-006 78.3797 -1.9094 -2.86149 18.7638 -9.53675e-007 7.10543e-015 -71.7619 6.47468 11.2418 10.9665 -3.8147e-006 3.8147e-006 -29.5894 -0.48605 -1.54306 10.8726 3.8147e-006 9.23705e-014 -27.8376 -0.0151396 -2.76064 11.2648 3.8147e-006 1.90735e-006 -1.98918e-006 -1.00583e-008 1.95988e-006 2.71429 -8.18693 -0.209967 -150.296 31.9697 2.49069 9.87129 -1.90735e-006 0 69.8731 2.11323 -0.584479 21.8657 1.90735e-006 -2.13163e-014 -50.3644 11.5366 17.2178 11.0011 7.62939e-006 3.8147e-006 -30.2488 -0.396767 -1.10751 12.8798 -3.81469e-006 -3.8147e-006 -41.9114 0.0131949 -0.00873461 13.0642 3.81469e-006 3.8147e-006 6.1657e-007 9.90909e-006 9.91822e-006 2.7143 8.18692 -0.209976 163.142 -30.0318 10.3399 9.87129 9.53674e-007 1.90735e-006 -94.7429 -1.43942 -0.591865 21.8657 -1.90735e-006 -5.72205e-006 58.8244 -13.6454 14.4752 11.0011 -3.8147e-006 -1.90735e-006 36.5058 0.435302 -1.24834 12.8798 7.10543e-015 -3.8147e-006 49.3799 -0.029598 -0.0380692 13.0642 -7.6294e-006 -7.6294e-006 -6.27237e-007 1.20248e-006 9.74076e-006 6.51512 7.99896 -4.2909 124.172 -34.741 3.35162 9.03709 9.53674e-007 -1.90735e-006 -79.7382 1.93957 -2.8786 18.7638 -2.86102e-006 -9.9476e-014 96.0855 -13.274 10.3182 10.9666 3.55271e-015 0 51.5076 0.172588 -2.90284 10.8726 3.81469e-006 -2.13163e-014 49.6794 0.0170976 -3.88556 11.2649 3.81469e-006 1.90735e-006 2.0199e-007 7.80044e-008 1.00277e-005 10.8127 7.82776 -6.29737 152.945 -18.5969 29.9325 8.91072 9.53674e-007 2.86102e-006 -96.9268 -1.70466 1.75766 15.6024 2.86102e-006 9.53674e-007 143.775 -14.8432 14.9354 9.68173 1.90735e-006 1.13687e-013 22.998 0.00984754 -11.4402 10.6982 -1.59872e-014 1.42109e-014 37.8221 -4.11647 -0.318934 11.1504 -3.8147e-006 -9.53674e-007 4.72697e-008 4.01501e-006 -3.31285e-009 28.5502 2.54627 -3.93738 89.9951 -40.8534 50.3814 2.30267 -1.90735e-006 -2.13163e-014 -40.7881 0.886118 -12.9622 5.31895 -1.77636e-015 2.38419e-007 -10.6931 2.01887 -9.85593 9.71243 -7.10543e-015 -1.42109e-014 -13.4821 1.01889 4.59773 28.5502 -2.54612 -3.93737 89.9968 -39.1541 129.609 2.30267 -1.90735e-006 4.76837e-007 -48.7902 -1.51232 -0.329345 5.31895 -1.77636e-015 1.42109e-014 -8.2192 0.608053 1.09588 9.71243 9.53675e-007 -5.36442e-007 -7.55569 -0.0441204 -6.05212 15.9737 8.03546 -8.36195 71.9199 8.13448 -13.4373 16.8869 -2.38419e-006 -1.90735e-006 -35.3369 -13.8984 -11.3446 8.42975 -7.10543e-015 -9.53675e-007 -31.4492 -9.08586 -14.306 7.53865 -0.0312081 2.09083 -7.44162 -4.94102 20.3496 14.7806 -6.70232 -9.44365 -49.1958 -50.892 12.97 19.9827 1.90735e-006 -3.8147e-006 33.2323 1.43372 -29.534 17.4553 3.8147e-006 9.53674e-007 27.5578 -2.01536 -9.14598 13.3835 -2.22654 7.39821 8.37042 1.85157 -1.49948 
-55.1993 7.45057 -0.219456 150.232 4.1034 2.63087 -3.49325 -8.0258 -2.22045e-016 -163.39 -84.4569 153.045 10.8127 -7.82778 -6.29736 -125.464 32.723 34.2032 8.91072 -1.90735e-006 9.53674e-007 72.0159 0.414236 1.5753 15.6024 1.43051e-006 -9.53674e-007 -45.2205 7.53295 19.5654 9.68174 -3.8147e-006 3.33955e-013 -32.9809 -0.854776 -13.9116 10.6982 0 -2.86102e-006 -49.818 4.11568 -1.81156 11.1504 3.8147e-006 -1.90735e-006 1.92694e-007 9.90956e-006 5.87042e-008 6.5151 -7.99897 -4.29089 -116.026 30.8703 6.43501 9.03709 -2.86102e-006 -1.90735e-006 76.7616 -1.87713 -2.83734 18.7638 -9.53675e-007 2.13163e-014 -71.1103 6.95908 11.9082 10.9665 -3.8147e-006 3.8147e-006 -30.1774 -0.479151 -1.58167 10.8726 3.8147e-006 7.81597e-014 -28.4199 -0.0161121 -2.80021 11.2648 3.8147e-006 1.90735e-006 -1.98918e-006 -1.00583e-008 1.95988e-006 2.71429 -8.18693 -0.209967 -151.687 31.2427 3.87032 9.87129 -1.90735e-006 0 70.4062 2.10222 -0.588702 21.8657 1.90735e-006 -2.84217e-014 -49.5586 12.8776 17.2317 11.0011 7.62939e-006 3.8147e-006 -32.7753 -0.411359 -1.16718 12.8798 -3.81469e-006 -3.8147e-006 -44.9304 0.023304 -0.0177177 13.0642 3.81469e-006 3.8147e-006 6.1657e-007 9.90909e-006 9.91822e-006 2.7143 8.18692 -0.209976 163.677 -29.439 10.9928 9.87129 9.53674e-007 1.90735e-006 -95.0674 -1.43706 -0.588633 21.8657 -1.90735e-006 -5.72205e-006 58.4257 -13.6062 14.4573 11.0011 -3.8147e-006 -1.90735e-006 36.5204 0.435155 -1.24837 12.8798 -7.10543e-015 -3.8147e-006 49.3952 -0.025916 -0.0348964 13.0642 -7.6294e-006 -7.6294e-006 -6.27237e-007 1.20248e-006 9.74076e-006 6.51512 7.99896 -4.2909 123.636 -34.9024 3.04803 9.03709 9.53674e-007 -1.90735e-006 -79.6841 1.93821 -2.87951 18.7638 -2.86102e-006 -9.23706e-014 97.1495 -13.5303 10.2158 10.9666 -7.10542e-015 0 52.174 0.160659 -2.94093 10.8726 3.81469e-006 -7.10543e-015 50.3449 0.015193 -3.90679 11.2649 3.81469e-006 1.90735e-006 2.0199e-007 7.80044e-008 1.00277e-005 10.8127 7.82776 -6.29737 152.424 -18.7442 30.4748 8.91072 9.53674e-007 2.86102e-006 -97.1936 -1.72113 1.75536 15.6024 2.86102e-006 9.53674e-007 143.147 -15.1215 14.5531 9.68173 1.90735e-006 1.7053e-013 24.2242 0.112083 -11.7513 10.6982 -3.55271e-015 -1.42109e-014 39.3063 -4.11652 -0.50239 11.1504 -3.8147e-006 -9.53674e-007 4.72697e-008 4.01501e-006 -3.31285e-009 28.5502 2.54627 -3.93738 89.9949 -40.8534 50.3813 2.30267 -1.90735e-006 -1.42109e-014 -42.6756 1.11272 -13.8475 5.31895 0 2.38419e-007 -10.6464 1.85347 -10.4757 9.71243 0 0 -12.5323 0.648472 3.13243 28.5502 -2.54612 -3.93737 89.9968 -39.1541 129.609 2.30267 -1.90735e-006 4.76837e-007 -52.3681 -1.82457 0.579946 5.31895 7.10543e-015 1.42109e-014 -9.43447 0.548971 1.12962 9.71243 9.53675e-007 -5.36442e-007 -8.35044 0.209847 -6.81232 15.9737 8.03546 -8.36195 72.6138 8.88107 -14.0026 16.8869 -2.38419e-006 -1.90735e-006 -35.0534 -13.8394 -11.2197 8.42975 -1.77636e-014 -9.53675e-007 -31.5549 -8.73333 -14.2879 7.53865 -0.0312081 2.09083 -7.44162 -4.94102 20.3496 14.7806 -6.70232 -9.44365 -49.016 -50.0674 12.1751 19.9827 1.90735e-006 -3.8147e-006 33.5719 1.4608 -30.4151 17.4553 3.8147e-006 9.53674e-007 27.5118 -2.0728 -9.75825 13.3835 -2.22654 7.39821 8.37017 1.8407 -2.88792 
